<svg xmlns="http://www.w3.org/2000/svg" width="100" height="100" viewBox="0 0 512 512"><path fill="#14B6B9" d="M387.5,206.2c-3.9-1.1-6.1-5.7-3.1-9c3.8-4.2,9-7.2,13.6-10.8c-2,0.3-4,0.6-6,0.9c-3.8,0.6-6.2-3.3-5.8-6.5c1.3-12.2-2.5-24.1-13.2-30.9c-10-6.4-22.2-9.6-33.9-10.9c-28.9-3.1-48.9,22.7-56.1,47.9c-0.7,2.5-2.4,4.1-5,4.4c-14.4,1.9-28.5-6.3-40.9-12.6c-14.8-7.5-28.6-17.5-40.3-29.3c-20.1-20.4-38.2-42.4-50.1-68.4c-3.1,6.6-5.9,13.5-6,20.8c-0.3,14.1,5.3,25.1,12.4,36.9c2.3,3.8-0.7,9.9-5.6,8.5c-7-2-14.7-3-21.6,0.1c-6.7,3.1-11.8,10.3-13.8,17.3c-4,14.6,1.8,30.6,15.9,37.3c4.4,2.1,3.7,8.5-0.6,10.1c-14.8,5.7-22.8,17.7-23.3,33.5c-0.2,7.1,0.5,14,6.6,18.6c5.6,4.2,12.8,6.4,19.3,8.8c3.8,1.4,4.1,7.6,0.6,9.5c-4.4,2.4-11,6.6-10.9,12.5c0.2,6.2,4.1,11,8.6,14.9c10.5,9.1,22.5,12.7,36.2,13.7c2.9,0.2,5.1,3.8,4.3,6.4c-3.8,14.3-17.5,23.1-29.5,30.2c-6.3,3.8-13.1,6.2-20.2,8c3.4,0.6,6.9,1,10.4,1.3c2.2,0.2,4.6,2.7,4.4,5c-0.4,6.4-3.8,11.5-7.9,16.3c-2.2,2.5-4.5,5-6.7,7.5c-0.6,0.7-1.2,1.3-1.7,2c24.9,3.7,50.2,3.7,75.1,0.4c42.7-5.7,85.1-20.8,119.3-47.4c16.6-12.9,31.4-28.6,42.3-46.6c5.6-9.3,10.2-19.1,14.1-29.3c5.6-14.6,6.7-30.4,9.5-45.6c0-0.2,0.1-0.4,0.1-0.6c-1.7-2.7-1.4-6.9,2.4-8.6c7.5-3.2,14-8.2,20.3-13.4C396.5,208.2,391.9,207.4,387.5,206.2z"/><path d="M414,201.9c-4.5-1.8-9.2-3-13.9-4c5.6-4.3,11.5-8.1,15.4-14.6c1.8-3-0.5-7.4-3.9-7.8c-4.8-0.7-9.6-0.5-14.3,0.1c-0.2-12.3-4.6-23.6-14.6-32c-11.4-9.5-27.2-13.3-41.6-15.3c-33.6-4.6-57.9,23.1-67.6,52.3c-11.6-0.1-23-7.4-33-12.4c-14-7.1-26.5-17-37.6-28.1c-21-21.2-39.6-44.8-50.2-73c-0.9-2.4-3.1-3.7-5.6-3.7h-1c-1.8,0-3.7,1.4-4.5,3c-5.6,11.9-11.2,22.9-11.9,36.3c-0.6,11.6,3.2,21.9,8.4,31.8c-5.7-0.3-11.5,0.5-16.8,3c-9.3,4.3-15.6,13-19,22.5c-5.9,16.4-0.6,35.3,12.3,46.3c-13.3,8.4-20.6,21.9-21.3,38.7c-0.4,9.6,1.2,18.1,7.9,25.3c4,4.3,9.4,7,15,9.2c-3.2,3.2-5.6,7-6.9,11.6c-1.9,7.2,1.4,14.9,5.7,20.6c9.8,12.8,25,19.5,40.6,21.9c-5.2,8-15.7,13.6-23.3,18.1c-6.1,3.6-13.6,5.6-20.5,7c-6.9,1.4-14.6,0.4-21.1,3.1c-3.9,1.6-5.5,8.4-0.6,10.1c10.2,3.6,20.6,6.3,31.3,7.8c-2.2,3.4-6.1,6.8-8.1,9.1c-3,3.4-7.7,7.7-7.2,12.7c0.1,0.7,0.2,1.3,0.5,1.8c-1,2.9,0.1,6.5,4,7.2c83.1,14.1,179.9-9.6,236.6-74.9c10.4-12,19.1-25.4,25.9-39.7c4.1-8.7,7.6-17.8,9.9-27.1c2.9-11.4,4-23.2,6.1-34.7c0.2-1.1,0.1-2.1-0.2-2.9c5.4-2.8,10.4-6.3,15.2-10.1c4.8-3.7,13.1-7.8,13.1-14.5C417,204.7,415.6,202.6,414,201.9z M380.7,222.6c-3.8,1.6-4.2,5.9-2.4,8.6c-0.1,0.2-0.1,0.4-0.1,0.6c-2.8,15.2-3.9,31-9.5,45.6c-3.9,10.2-8.5,19.9-14.1,29.3c-10.9,18-25.7,33.7-42.3,46.6c-34.2,26.6-76.6,41.7-119.3,47.4c-24.9,3.3-50.3,3.3-75.1-0.4c0.5-0.7,1.1-1.4,1.7-2c2.2-2.5,4.5-4.9,6.7-7.5c4.1-4.8,7.6-9.9,7.9-16.3c0.1-2.2-2.3-4.8-4.4-5c-3.5-0.3-6.9-0.8-10.4-1.3c7.1-1.7,13.9-4.2,20.2-8c12-7.2,25.7-15.9,29.5-30.2c0.7-2.6-1.5-6.2-4.3-6.4c-13.7-1-25.7-4.6-36.2-13.7c-4.5-3.9-8.5-8.7-8.6-14.9c-0.2-5.9,6.5-10,10.9-12.5c3.4-1.9,3.1-8.1-0.6-9.5c-6.5-2.4-13.7-4.6-19.3-8.8c-6-4.6-6.8-11.4-6.6-18.6c0.4-15.8,8.5-27.8,23.3-33.5c4.3-1.7,5.1-8,0.6-10.1c-14.1-6.6-19.9-22.7-15.9-37.3c1.9-7.1,7-14.2,13.8-17.3c6.9-3.2,14.6-2.1,21.6-0.1c4.9,1.4,7.9-4.7,5.6-8.5c-7.1-11.8-12.7-22.8-12.4-36.9c0.1-7.3,2.9-14.2,6-20.8c11.9,26,30,48.1,50.1,68.4c11.7,11.8,25.4,21.8,40.3,29.3c12.4,6.3,26.5,14.5,40.9,12.6c2.6-0.3,4.3-1.9,5-4.4c7.1-25.2,27.1-51,56.1-47.9c11.7,1.3,23.9,4.5,33.9,10.9c10.7,6.8,14.5,18.7,13.2,30.9c-0.4,3.3,2,7.2,5.8,6.5c2-0.3,4-0.6,6-0.9c-4.6,3.5-9.8,6.6-13.6,10.8c-3,3.3-0.8,8,3.1,9c4.4,1.2,9,2,13.5,3.1C394.7,214.4,388.1,219.5,380.7,222.6z"/></svg>